<svg version="1.1" preserveAspectRatio="none" xmlns="http://www.w3.org/2000/svg" width="500" height="500" viewBox="0 0 500 500"><rect width="100%" height="100%" fill="#121B31" fill-opacity="1"/><svg viewBox="85.741 100.2304 288.4758 176" width="333" height="203.16435555426142" x="83.5px" y="148.4178px" xmlns="http://www.w3.org/2000/svg" xmlns:xlink="http://www.w3.org/1999/xlink" preserveAspectRatio="none"><defs></defs><style>.companyName {fill:#F7F7F7;fill-opacity:1;}.icon3 {fill:#D0E156;fill-opacity:1;}.icon3-str {stroke:#D0E156;stroke-opacity:1;}.shapeStroke-str {stroke:#F7F7F7;stroke-opacity:1;}.text {fill:#F7F7F7;fill-opacity:1;}</style><g opacity="1" transform="rotate(0 85.741 100.2304)">
<svg width="288.4758" height="120" x="85.741" y="100.2304" version="1.1" preserveAspectRatio="none" viewBox="4.16 -26.8 267.32 111.2">
  <g transform="matrix(1 0 0 1 0 0)" class="companyName"><path id="id-D6z1nYkh24" d="M6.16-1.84L22.84-1.84L22.84 0L4.16 0L4.16-26.40L22.20-26.40L22.20-24.56L6.16-24.56L6.16-14.36L18.84-14.36L18.84-12.48L6.16-12.48L6.16-1.84Z M53.20-26.40L53.20 0L51.28 0L51.28-19.68L51.52-24.48L51.48-24.48L41.84 0L40 0L30.36-24.48L30.32-24.48L30.56-19.68L30.56 0L28.64 0L28.64-26.40L31.64-26.40L39.60-6.40L40.92-2.36L40.96-2.36L42.24-6.36L50.20-26.40L53.20-26.40Z M70.28-26.40Q74.40-26.40 76.82-24.34Q79.24-22.28 79.24-18.68L79.24-18.68Q79.24-15.08 76.82-13Q74.40-10.92 70.28-10.92L70.28-10.92L63.52-10.92L63.52 0L61.52 0L61.52-26.40L70.28-26.40ZM70.04-12.80Q73.48-12.80 75.30-14.32Q77.12-15.84 77.12-18.68L77.12-18.68Q77.12-21.48 75.30-23.02Q73.48-24.56 70.04-24.56L70.04-24.56L63.52-24.56L63.52-12.80L70.04-12.80Z M87-1.84L102.84-1.84L102.84 0L85 0L85-26.40L87-26.40L87-1.84Z M116.80-26.80Q120.52-26.80 123.26-25.14Q126-23.48 127.48-20.42Q128.96-17.36 128.96-13.20L128.96-13.20Q128.96-9.04 127.48-5.98Q126-2.92 123.26-1.26Q120.52 0.40 116.80 0.40L116.80 0.40Q113.08 0.40 110.34-1.26Q107.60-2.92 106.12-5.98Q104.64-9.04 104.64-13.20L104.64-13.20Q104.64-17.36 106.12-20.42Q107.60-23.48 110.34-25.14Q113.08-26.80 116.80-26.80L116.80-26.80ZM116.80-24.96Q113.72-24.96 111.46-23.54Q109.20-22.12 107.98-19.46Q106.76-16.80 106.76-13.20L106.76-13.20Q106.76-9.60 107.98-6.94Q109.20-4.28 111.46-2.86Q113.72-1.44 116.80-1.44L116.80-1.44Q119.88-1.44 122.16-2.86Q124.44-4.28 125.66-6.94Q126.88-9.60 126.88-13.20L126.88-13.20Q126.88-16.80 125.66-19.46Q124.44-22.12 122.16-23.54Q119.88-24.96 116.80-24.96L116.80-24.96Z M151.72-26.40L142.36-10.28L142.36 0L140.36 0L140.36-10.28L131-26.40L133.36-26.40L141.36-12.36L149.36-26.40L151.72-26.40Z M158.40-1.84L175.08-1.84L175.08 0L156.40 0L156.40-26.40L174.44-26.40L174.44-24.56L158.40-24.56L158.40-14.36L171.08-14.36L171.08-12.48L158.40-12.48L158.40-1.84Z M182.88-1.84L199.56-1.84L199.56 0L180.88 0L180.88-26.40L198.92-26.40L198.92-24.56L182.88-24.56L182.88-14.36L195.56-14.36L195.56-12.48L182.88-12.48L182.88-1.84Z M28.72 15.60L28.72 42L26.80 42L26.80 22.32L27.04 17.52L27 17.52L17.36 42L15.52 42L5.88 17.52L5.84 17.52L6.08 22.32L6.08 42L4.16 42L4.16 15.60L7.16 15.60L15.12 35.60L16.44 39.64L16.48 39.64L17.76 35.64L25.72 15.60L28.72 15.60Z M55 42L51.68 33.72L39.04 33.72L35.76 42L33.64 42L44.20 15.60L46.56 15.60L57.12 42L55 42ZM39.80 31.88L50.96 31.88L46.36 20.36L45.40 17.56L45.36 17.56L44.40 20.28L39.80 31.88Z M82.32 15.60L82.32 42L79.84 42L65.84 21.28L63.88 17.76L63.84 17.76L63.96 21.08L63.96 42L62.04 42L62.04 15.60L64.56 15.60L78.52 36.28L80.52 39.84L80.44 36.52L80.44 15.60L82.32 15.60Z M108.60 42L105.28 33.72L92.64 33.72L89.36 42L87.24 42L97.80 15.60L100.16 15.60L110.72 42L108.60 42ZM93.40 31.88L104.56 31.88L99.96 20.36L99 17.56L98.96 17.56L98 20.28L93.40 31.88Z M125.12 29.08L135.96 29.08L135.96 42L134.36 42L134.28 37.40Q133.20 39.80 130.90 41.10Q128.60 42.40 125.20 42.40L125.20 42.40Q121.60 42.40 118.90 40.74Q116.20 39.08 114.74 36Q113.28 32.92 113.28 28.80L113.28 28.80Q113.28 24.68 114.78 21.60Q116.28 18.52 119 16.86Q121.72 15.20 125.32 15.20L125.32 15.20Q129.36 15.20 131.92 16.80Q134.48 18.40 135.76 21.68L135.76 21.68L133.92 22.64Q133 19.88 130.82 18.46Q128.64 17.04 125.32 17.04L125.32 17.04Q122.36 17.04 120.12 18.46Q117.88 19.88 116.64 22.54Q115.40 25.20 115.40 28.80L115.40 28.80Q115.40 34.28 118.02 37.42Q120.64 40.56 125.28 40.56L125.28 40.56Q128.16 40.56 130.16 39.42Q132.16 38.28 133.12 36.42Q134.08 34.56 134.08 32.44L134.08 32.44L134.08 30.96L125.12 30.96L125.12 29.08Z M145.04 40.16L161.72 40.16L161.72 42L143.04 42L143.04 15.60L161.08 15.60L161.08 17.44L145.04 17.44L145.04 27.64L157.72 27.64L157.72 29.52L145.04 29.52L145.04 40.16Z M192.08 15.60L192.08 42L190.16 42L190.16 22.32L190.40 17.52L190.36 17.52L180.72 42L178.88 42L169.24 17.52L169.20 17.52L169.44 22.32L169.44 42L167.52 42L167.52 15.60L170.52 15.60L178.48 35.60L179.80 39.64L179.84 39.64L181.12 35.64L189.08 15.60L192.08 15.60Z M202.40 40.16L219.08 40.16L219.08 42L200.40 42L200.40 15.60L218.44 15.60L218.44 17.44L202.40 17.44L202.40 27.64L215.08 27.64L215.08 29.52L202.40 29.52L202.40 40.16Z M245.16 15.60L245.16 42L242.68 42L228.68 21.28L226.72 17.76L226.68 17.76L226.80 21.08L226.80 42L224.88 42L224.88 15.60L227.40 15.60L241.36 36.28L243.36 39.84L243.28 36.52L243.28 15.60L245.16 15.60Z M271.48 15.60L271.48 17.44L261.84 17.44L261.84 42L259.84 42L259.84 17.44L250.20 17.44L250.20 15.60L271.48 15.60Z M14.68 57.20Q22.12 57.20 24.64 63.04L24.64 63.04L22.92 64.44Q21.92 61.60 19.94 60.32Q17.96 59.04 14.72 59.04L14.72 59.04Q12.40 59.04 10.68 59.76Q8.96 60.48 8.06 61.72Q7.16 62.96 7.16 64.52L7.16 64.52Q7.16 66.04 7.92 67.04Q8.68 68.04 10.50 68.74Q12.32 69.44 15.52 70L15.52 70Q20.68 70.88 22.84 72.56Q25 74.24 25 77.20L25 77.20Q25 79.32 23.76 80.96Q22.52 82.60 20.26 83.50Q18 84.40 15.08 84.40L15.08 84.40Q10.92 84.40 8.06 82.74Q5.20 81.08 4.16 78.08L4.16 78.08L5.92 76.72Q6.72 79.56 9.14 81.06Q11.56 82.56 15.12 82.56L15.12 82.56Q18.56 82.56 20.74 81.16Q22.92 79.76 22.92 77.32L22.92 77.32Q22.92 75.20 21.14 73.96Q19.36 72.72 14.96 71.96L14.96 71.96Q11.24 71.32 9.08 70.40Q6.92 69.48 5.98 68.12Q5.04 66.76 5.04 64.72L5.04 64.72Q5.04 62.68 6.22 60.96Q7.40 59.24 9.58 58.22Q11.76 57.20 14.68 57.20L14.68 57.20Z M47.68 57.60L38.32 73.72L38.32 84L36.32 84L36.32 73.72L26.96 57.60L29.32 57.60L37.32 71.64L45.32 57.60L47.68 57.60Z M59.80 57.20Q67.24 57.20 69.76 63.04L69.76 63.04L68.04 64.44Q67.04 61.60 65.06 60.32Q63.08 59.04 59.84 59.04L59.84 59.04Q57.52 59.04 55.80 59.76Q54.08 60.48 53.18 61.72Q52.28 62.96 52.28 64.52L52.28 64.52Q52.28 66.04 53.04 67.04Q53.80 68.04 55.62 68.74Q57.44 69.44 60.64 70L60.64 70Q65.80 70.88 67.96 72.56Q70.12 74.24 70.12 77.20L70.12 77.20Q70.12 79.32 68.88 80.96Q67.64 82.60 65.38 83.50Q63.12 84.40 60.20 84.40L60.20 84.40Q56.04 84.40 53.18 82.74Q50.32 81.08 49.28 78.08L49.28 78.08L51.04 76.72Q51.84 79.56 54.26 81.06Q56.68 82.56 60.24 82.56L60.24 82.56Q63.68 82.56 65.86 81.16Q68.04 79.76 68.04 77.32L68.04 77.32Q68.04 75.20 66.26 73.96Q64.48 72.72 60.08 71.96L60.08 71.96Q56.36 71.32 54.20 70.40Q52.04 69.48 51.10 68.12Q50.16 66.76 50.16 64.72L50.16 64.72Q50.16 62.68 51.34 60.96Q52.52 59.24 54.70 58.22Q56.88 57.20 59.80 57.20L59.80 57.20Z M93.20 57.60L93.20 59.44L83.56 59.44L83.56 84L81.56 84L81.56 59.44L71.92 59.44L71.92 57.60L93.20 57.60Z M100.24 82.16L116.92 82.16L116.92 84L98.24 84L98.24 57.60L116.28 57.60L116.28 59.44L100.24 59.44L100.24 69.64L112.92 69.64L112.92 71.52L100.24 71.52L100.24 82.16Z M147.28 57.60L147.28 84L145.36 84L145.36 64.32L145.60 59.52L145.56 59.52L135.92 84L134.08 84L124.44 59.52L124.40 59.52L124.64 64.32L124.64 84L122.72 84L122.72 57.60L125.72 57.60L133.68 77.60L135.00 81.64L135.04 81.64L136.32 77.64L144.28 57.60L147.28 57.60Z"/></g>
</svg>
</g><g opacity="1" transform="rotate(0 85.741 238.2304)">
<svg width="288.4758" height="3" x="85.741" y="238.2304" version="1.1" preserveAspectRatio="none" viewBox="0 0 288.4758 3">
  <defs><rect x="0" y="0" width="288.4758" height="3" rx="0px" ry="0px" id="id-tBXipXk0b1694765602829"></rect></defs><use class="icon3 shapeStroke-str" style="stroke-width:0;" xlink:href="#id-tBXipXk0b1694765602829"></use>
</svg>
</g><g opacity="1" transform="rotate(0 85.741 256.2304)">
<svg width="56.5296" height="20" x="85.741" y="256.2304" version="1.1" preserveAspectRatio="none" viewBox="3.24 -31 110.12 38.96">
  <g transform="matrix(1 0 0 1 0 0)" class="text"><path id="id-D-YM9nyY45" d="M13.84-17.24Q16.08-17.24 17.94-16.16Q19.80-15.08 20.88-13.12Q21.96-11.16 21.96-8.56L21.96-8.56Q21.96-5.84 20.80-3.80Q19.64-1.76 17.66-0.68Q15.68 0.40 13.36 0.40L13.36 0.40Q11.32 0.40 9.66-0.40Q8-1.20 6.96-2.56L6.96-2.56L6.96 0L3.24 0L3.24-31L6.96-31L6.96-14.36Q8-15.68 9.82-16.46Q11.64-17.24 13.84-17.24L13.84-17.24ZM12.56-2.80Q15-2.80 16.58-4.44Q18.16-6.08 18.16-8.56L18.16-8.56Q18.16-10.16 17.42-11.46Q16.68-12.76 15.40-13.52Q14.12-14.28 12.56-14.28L12.56-14.28Q10.52-14.28 8.98-13.18Q7.44-12.08 6.96-10.28L6.96-10.28L6.96-6.92Q7.44-5.12 8.96-3.96Q10.48-2.80 12.56-2.80L12.56-2.80Z M40.08-16.56L43.52-16.56L32.84 7.96L29.16 7.96L32.96-0.56L25.28-16.56L29.48-16.56L34.84-4.76L40.08-16.56Z M80.84 0L77.84-7.60L66.72-7.60L63.64 0L59.80 0L72.44-30.12L72.68-30.12L85.32 0L80.84 0ZM68.12-10.96L76.52-10.96L72.40-21.52L68.12-10.96Z M95.48-17.28L95.36-15.84L95.84-16.60L107.68-28.92L112.68-28.92L100.72-16.52L113.36 0L108.44 0L97.88-14.04L95.44-11.68L95.48 0L91.52 0L91.52-28.92L95.48-28.92L95.48-17.28Z"/></g>
</svg>
</g></svg></svg>